<svg height="443pt" viewBox="-27 0 443 443.929" width="443pt" xmlns="http://www.w3.org/2000/svg">
<path fill="#ffffff" d="m353.832031 174.929688h-.628906c-8.339844-.066407-16.425781 2.882812-22.765625 8.304687-5.375-13.957031-18.375-23.945313-33.558594-23.945313-9.222656.09375-18.039062 3.808594-24.546875 10.347657-6.03125-12.003907-18.277343-19.613281-31.710937-19.707031h-.664063c-7.4375 0-14.710937 1.925781-19.710937 6.007812v-84.652344c0-21.027344-16.40625-38.132812-36.335938-38.132812-19.910156 0-36.214844 17.089844-36.230468 38.105468l-.167969 168.582032-8.648438-10.5c-8.539062-10.628906-21.109375-17.230469-34.707031-18.226563-13.316406-.910156-26.417969 3.722657-36.199219 12.800781l-8.363281 6.9375c-2.898438 2.402344-3.730469 6.507813-1.988281 9.847657l81.441406 156.515625c14.988281 28.792968 43.511719 46.714844 74.441406 46.714844h91.347657c46.871093 0 85.046874-40.628907 85.09375-90.523438.019531-22.164062.042968-38.691406.058593-52.085938.046875-35.875.066407-49.070312-.027343-88.589843-.050782-20.96875-16.257813-37.800781-36.128907-37.800781zm20.15625 126.351562c-.015625 13.398438-.039062 29.945312-.058593 52.109375-.039063 41.082031-31.035157 74.539063-69.09375 74.539063h-91.347657c-24.941406 0-48.023437-14.621094-60.246093-38.101563l-78.46875-150.769531 3.539062-2.945313c.101562-.085937.207031-.179687.304688-.269531 6.570312-6.183594 15.410156-9.359375 24.410156-8.765625 9.199218.707031 17.691406 5.203125 23.445312 12.417969l22.792969 27.746094c2.144531 2.609374 5.695313 3.589843 8.875 2.453124 3.179687-1.136718 5.304687-4.152343 5.304687-7.527343l.136719-190.902344c.007813-12.191406 9.238281-22.113281 20.335938-22.113281 11.097656 0 20.328125 9.925781 20.328125 22.132812v115.097656c0 .402344-.019532.808594-.019532 1.214844 0 .179688.019532.363282.019532.542969v49.1875c0 4.417969 3.582031 8 8 8 4.417968 0 8-3.582031 8-8v-50.675781c0-11.761719 8.898437-20.722656 19.710937-20.722656h.664063c11.101562 0 20.625 9.46875 20.625 21.675781v45.03125c0 4.417969 3.582031 8 8 8 4.417968 0 8-3.582031 8-8v-35.332031c0-12.203126 8.867187-22.132813 20.03125-22.132813 11.101562 0 19.96875 9.925781 19.96875 22.132813v33.332031c0 4.417969 3.582031 8 8 8 4.417968 0 8-3.582031 8-8v-18.050781c0-12.199219 8.859375-21.65625 19.957031-21.65625h.628906c11.070313 0 20.097657 9.660156 20.128907 21.828124.09375 39.492188.074218 52.671876.027343 88.523438zm0 0"/>
</svg>